<svg xmlns="http://www.w3.org/2000/svg" viewBox="0 0 237.14 304.69">
	<defs>
		<style>
			.cls-1{isolation:isolate;}
            .cls-2{fill:none;}
            .cls-3{fill:#435865;}
            .cls-4{opacity:0.5;}
            .cls-4,.cls-5{mix-blend-mode:multiply;}
		</style>
	</defs>
	<title>
		anchor-jesus
	</title>
	<g class="cls-1">
		<g id="objects">
			<path class="cls-2" d="M136.79,57.72l0,0c.25-.28.5-.56.74-.86l.06-.06.67-.86a.44.44,0,0,1,.08-.11L139,55l.09-.15c.18-.28.37-.56.54-.84a2,2,0,0,0,.11-.2c.17-.27.33-.55.48-.83l.12-.24c.14-.27.29-.54.42-.81l.15-.34c.11-.24.23-.49.34-.75l.15-.38c.09-.24.19-.48.28-.73s.1-.3.16-.45.16-.46.23-.69.09-.32.14-.49.13-.44.19-.67.07-.34.11-.51.11-.45.16-.68l.12-.65c0-.18.07-.36.09-.55s.07-.48.1-.73l.06-.5c0-.28.05-.57.07-.86,0-.13,0-.25,0-.38q0-.63,0-1.26c0-.43,0-.85,0-1.27l0-.34c0-.3,0-.6-.07-.9l-.06-.47c0-.25-.06-.51-.1-.76s-.06-.33-.08-.5-.08-.47-.13-.7-.09-.4-.14-.6-.08-.4-.13-.59l-.18-.61L142,34l-.21-.61c-.06-.18-.11-.36-.18-.53l-.24-.63c-.07-.16-.13-.33-.2-.48s-.19-.44-.29-.65-.13-.3-.19-.44l-.35-.68-.19-.37c-.13-.24-.27-.47-.4-.69s-.13-.23-.19-.34-.3-.46-.45-.69a3,3,0,0,0-.19-.3c-.16-.24-.32-.47-.49-.7a2.48,2.48,0,0,0-.19-.26c-.18-.25-.37-.49-.56-.73a1.56,1.56,0,0,1-.16-.2q-.3-.36-.63-.72a2.09,2.09,0,0,0-.14-.17c-.22-.24-.45-.48-.68-.71l-.13-.14-.74-.71-.1-.1c-.27-.24-.53-.47-.81-.7l-.08-.07-.86-.68-.06-.05c-.3-.23-.62-.45-.93-.66l0,0-1-.64h0a24.52,24.52,0,0,0-12.67-3.6h-.14a24.56,24.56,0,1,0,0,49.11h.14A24.49,24.49,0,0,0,136.79,57.72Z" transform="translate(0 0)" />
			<path class="cls-3" d="M109.29,129.88c-.66,48-2.32,114.08-6.44,121.91,0,0-19.64,15.39-66.79-34,0,0,10.8-1,10.8-5.9s-37.32-36.34-36.67-57c0,0-20.3,45.84-3.6,69.09,0,0,4.58,3.27,13.42-1,0,0,27.34,53.34,98.2,81.57,0,.12.29.16.5.13V129.88Z" transform="translate(0 0)" />
			<path class="cls-3" d="M118.71,65.81h-.14a24.56,24.56,0,1,1,0-49.11h.14V0a41.15,41.15,0,0,1,29.08,12.13,41.26,41.26,0,1,0-38.07,69.42c0,1.3,0,3.23,0,5.67h9Z" transform="translate(0 0)" />
			<g class="cls-4">
				<polygon class="cls-3" points="118.71 304.68 118.71 304.68 118.71 304.68 118.71 304.68" />
			</g>
			<g class="cls-4">
				<path class="cls-3" d="M136.79,57.72a24.49,24.49,0,0,1-18.08,8.09h0A24.49,24.49,0,0,0,136.79,57.72Z" transform="translate(0 0)" />
			</g>
			<g class="cls-4">
				<path class="cls-3" d="M118.71,16.7a24.52,24.52,0,0,1,12.67,3.6A24.52,24.52,0,0,0,118.71,16.7Z" transform="translate(0 0)" />
			</g>
			<path class="cls-3" d="M118.71,304.68h0l.14,0h0a.09.09,0,0,0,.06-.08c70.86-28.23,98.2-81.57,98.2-81.57,8.83,4.25,13.42,1,13.42,1,16.7-23.25-3.6-69.09-3.6-69.09.65,20.63-36.67,52.06-36.67,57s10.8,5.9,10.8,5.9c-47.15,49.44-66.79,34-66.79,34-4.12-7.83-5.78-73.92-6.44-121.91h-9.14Z" transform="translate(0 0)" />
			<g class="cls-4">
				<path class="cls-3" d="M118.71,304.68h0l.14,0h0a.09.09,0,0,0,.06-.08c70.86-28.23,98.2-81.57,98.2-81.57,8.83,4.25,13.42,1,13.42,1,16.7-23.25-3.6-69.09-3.6-69.09.65,20.63-36.67,52.06-36.67,57s10.8,5.9,10.8,5.9c-47.15,49.44-66.79,34-66.79,34-4.12-7.83-5.78-73.92-6.44-121.91h-9.14Z" transform="translate(0 0)" />
			</g>
			<path class="cls-3" d="M118.71,16.7a24.52,24.52,0,0,1,12.67,3.6h0l1,.64,0,0c.31.21.63.43.93.66l.06.05.86.68.08.07c.28.23.54.46.81.7l.1.1.74.71.13.14c.23.23.46.47.68.71a2.09,2.09,0,0,1,.14.17q.33.36.63.72a1.56,1.56,0,0,0,.16.2c.19.24.38.48.56.73a2.48,2.48,0,0,1,.19.26c.17.23.33.46.49.7a3,3,0,0,1,.19.3c.15.23.31.45.45.69s.13.22.19.34.27.45.4.69l.19.37.35.68c.06.14.13.29.19.44s.2.43.29.65.13.32.2.48l.24.63c.07.17.12.35.18.53L142,34l.15.55.18.61c0,.19.09.39.13.59s.1.39.14.6.08.47.13.7.06.33.08.5.07.51.1.76l.06.47c0,.3.05.6.07.9l0,.34c0,.42,0,.84,0,1.27s0,.84,0,1.26c0,.13,0,.25,0,.38,0,.29,0,.58-.07.86l-.06.5c0,.25-.06.49-.1.73s-.06.37-.09.55l-.12.65c0,.23-.1.46-.16.68s-.07.34-.11.51-.13.45-.19.67-.09.33-.14.49-.16.46-.23.69-.1.3-.16.45-.19.49-.28.73l-.15.38c-.11.26-.23.51-.34.75l-.15.34c-.13.27-.28.54-.42.81l-.12.24c-.15.28-.31.56-.48.83a2,2,0,0,1-.11.2c-.17.28-.36.56-.54.84L139,55l-.6.85a.44.44,0,0,0-.08.11l-.67.86-.06.06c-.24.3-.49.58-.74.86l0,0a24.49,24.49,0,0,1-18.08,8.09V87.22h8.73c0-2.44,0-4.37,0-5.67a41.27,41.27,0,0,0,32.41-40.29c0-.72,0-1.42-.06-2.13,0-.19,0-.38,0-.58,0-.5-.07-1-.12-1.51,0-.3-.07-.6-.11-.9s-.09-.78-.15-1.16-.12-.7-.19-1.06-.11-.65-.17-1-.16-.69-.24-1-.14-.64-.22-.95-.2-.71-.3-1.07-.16-.59-.26-.89-.24-.74-.37-1.11l-.27-.8c-.14-.39-.3-.76-.45-1.14s-.19-.49-.29-.73c-.17-.4-.35-.8-.53-1.19-.1-.21-.19-.43-.29-.64-.21-.43-.43-.85-.66-1.28-.08-.16-.16-.33-.25-.49-.24-.44-.49-.87-.75-1.3l-.24-.43c-.27-.44-.56-.88-.85-1.32l-.22-.35q-.47-.69-1-1.35l-.18-.26c-.35-.47-.71-.92-1.08-1.38-.05-.05-.09-.12-.14-.18-.39-.47-.79-.92-1.2-1.38l-.09-.11c-.43-.47-.87-.93-1.31-1.37l-.05-.06A41.15,41.15,0,0,0,118.71,0Z" transform="translate(0 0)" />
			<g class="cls-4">
				<path class="cls-3" d="M118.71,16.7a24.52,24.52,0,0,1,12.67,3.6h0l1,.64,0,0c.31.21.63.43.93.66l.06.05.86.68.08.07c.28.23.54.46.81.7l.1.1.74.71.13.14c.23.23.46.47.68.71a2.09,2.09,0,0,1,.14.17q.33.36.63.72a1.56,1.56,0,0,0,.16.2c.19.24.38.48.56.73a2.48,2.48,0,0,1,.19.26c.17.23.33.46.49.7a3,3,0,0,1,.19.3c.15.23.31.45.45.69s.13.22.19.34.27.45.4.69l.19.37.35.68c.06.14.13.29.19.44s.2.43.29.65.13.32.2.48l.24.63c.07.17.12.35.18.53L142,34l.15.55.18.61c0,.19.09.39.13.59s.1.39.14.6.08.47.13.7.06.33.08.5.07.51.1.76l.06.47c0,.3.05.6.07.9l0,.34c0,.42,0,.84,0,1.27s0,.84,0,1.26c0,.13,0,.25,0,.38,0,.29,0,.58-.07.86l-.06.5c0,.25-.06.49-.1.73s-.06.37-.09.55l-.12.65c0,.23-.1.46-.16.68s-.07.34-.11.51-.13.45-.19.67-.09.33-.14.49-.16.46-.23.69-.1.3-.16.45-.19.49-.28.73l-.15.38c-.11.26-.23.51-.34.75l-.15.34c-.13.27-.28.54-.42.81l-.12.24c-.15.28-.31.56-.48.83a2,2,0,0,1-.11.2c-.17.28-.36.56-.54.84L139,55l-.6.85a.44.44,0,0,0-.08.11l-.67.86-.06.06c-.24.3-.49.58-.74.86l0,0a24.49,24.49,0,0,1-18.08,8.09V87.22h8.73c0-2.44,0-4.37,0-5.67a41.27,41.27,0,0,0,32.41-40.29c0-.72,0-1.42-.06-2.13,0-.19,0-.38,0-.58,0-.5-.07-1-.12-1.51,0-.3-.07-.6-.11-.9s-.09-.78-.15-1.16-.12-.7-.19-1.06-.11-.65-.17-1-.16-.69-.24-1-.14-.64-.22-.95-.2-.71-.3-1.07-.16-.59-.26-.89-.24-.74-.37-1.11l-.27-.8c-.14-.39-.3-.76-.45-1.14s-.19-.49-.29-.73c-.17-.4-.35-.8-.53-1.19-.1-.21-.19-.43-.29-.64-.21-.43-.43-.85-.66-1.28-.08-.16-.16-.33-.25-.49-.24-.44-.49-.87-.75-1.3l-.24-.43c-.27-.44-.56-.88-.85-1.32l-.22-.35q-.47-.69-1-1.35l-.18-.26c-.35-.47-.71-.92-1.08-1.38-.05-.05-.09-.12-.14-.18-.39-.47-.79-.92-1.2-1.38l-.09-.11c-.43-.47-.87-.93-1.31-1.37l-.05-.06A41.15,41.15,0,0,0,118.71,0Z" transform="translate(0 0)" />
			</g>
			<g class="cls-5">
				<path class="cls-3" d="M76.5,96.07q-.24,5.82-.24,14.38,0,6.49-2.67,9.23-2.27,2.35-7,2.35a14.67,14.67,0,0,1-3.42-.41l.35-4.2a6.34,6.34,0,0,0,2.62.58,5.22,5.22,0,0,0,3.71-1.11c1.1-1.07,1.66-3.08,1.66-6q0-8.93-.29-14.77Z" transform="translate(0 0)" />
				<path class="cls-3" d="M98.47,117.2l-.16,4.3H81.69q.25-5.9.26-13.3,0-7.11-.26-12.13H97.55l-.21,4.28Q91.48,100,86.71,100q.2,2.71.2,6.4,4.08,0,8.73-.21v4.08q-4.58-.19-8.73-.2c0,2.65,0,5.12.15,7.43Q92.42,117.54,98.47,117.2Z" transform="translate(0 0)" />
				<path class="cls-3" d="M119.39,114.57q0,7.64-11,7.63a25.88,25.88,0,0,1-6.93-.89l1-4.36a18.33,18.33,0,0,0,6,1.09,12.1,12.1,0,0,0,4.49-.6,2.08,2.08,0,0,0,1.37-2,3.06,3.06,0,0,0-1.29-2.5,21.68,21.68,0,0,0-4.51-2.35,14,14,0,0,1-4.59-2.89,6.74,6.74,0,0,1-1.89-4.86,6.22,6.22,0,0,1,2.49-5.25q2.49-1.91,7.15-1.9a27.1,27.1,0,0,1,6.43.65l-.72,4.33a16.57,16.57,0,0,0-5.71-1q-4.6,0-4.61,2.47a2.53,2.53,0,0,0,1.08,2.12,21.21,21.21,0,0,0,4.08,2,15.28,15.28,0,0,1,5,3A7.2,7.2,0,0,1,119.39,114.57Z" transform="translate(0 0)" />
				<path class="cls-3" d="M144.82,96.07q-.18,6.57-.18,13.13,0,13-10.62,13c-3.51,0-6.14-1-7.91-2.88s-2.66-5.35-2.66-10.31q0-6.56-.18-12.91h5.53q-.26,6.6-.25,12.74c0,3.58.45,6,1.37,7.36a4.74,4.74,0,0,0,4.21,2,4.82,4.82,0,0,0,4.32-2q1.34-2,1.33-7.41,0-6-.26-12.7Z" transform="translate(0 0)" />
				<path class="cls-3" d="M166.61,114.57q0,7.64-11,7.63a26,26,0,0,1-6.94-.89l1-4.36a18.29,18.29,0,0,0,6,1.09,12.1,12.1,0,0,0,4.49-.6,2.08,2.08,0,0,0,1.37-2,3.06,3.06,0,0,0-1.29-2.5,22,22,0,0,0-4.51-2.35,14,14,0,0,1-4.59-2.89,6.71,6.71,0,0,1-1.9-4.86,6.22,6.22,0,0,1,2.49-5.25q2.49-1.91,7.16-1.9a27.22,27.22,0,0,1,6.43.65l-.73,4.33a16.51,16.51,0,0,0-5.7-1q-4.61,0-4.61,2.47a2.53,2.53,0,0,0,1.08,2.12,21.21,21.21,0,0,0,4.08,2,15.39,15.39,0,0,1,5,3A7.2,7.2,0,0,1,166.61,114.57Z" transform="translate(0 0)" />
			</g>
		</g>
	</g>
</svg>
