<svg id="Ebene_1" data-name="Ebene 1" xmlns="http://www.w3.org/2000/svg" xmlns:xlink="http://www.w3.org/1999/xlink" viewBox="0 0 317.05 225.39">
	<defs>
		<style>
			.cls-1{fill:none;}
			.waves{
				clip-path:url(#clip-path);
			}
			.wave-1{fill:#01609e; }
			.wave-2{fill:#0c70b1; }
			.wave-3{fill:#007bc7; }
			.wave-4{fill:#1b8dd4; }
			
			.wave-1 {
				animation:         wave-animation 8s infinite; /* IE 10+, Fx 29+ */
			}

			.wave-2 {
				animation:         wave-animation-2 8s infinite;
			}

			.wave-3 {
				animation:         wave-animation-3 7s infinite; /* IE 10+, Fx 29+ */
			}

			.wave-4 {
				animation:         wave-animation-4 7s infinite; /* IE 10+, Fx 29+ */
			}
			
			@keyframes wave-animation {
			0%   { transform: translate(0px, 0px)  }
			50% { transform: translate(-10px, 30px) }
			100% { transform: translate(0px, 0px) }
			}

			@keyframes wave-animation-2 {
			0%   { transform: translate(0px, 0px)  }
			50% { transform: translate(-20px, 20px) }
			100% { transform: translate(0px, 0px) }
			}

			@keyframes wave-animation-3 {
			0%   { transform: translate(30px, -10px)  }
			50% { transform: translate(30px, 10px) }
			100%   { transform: translate(30px, -10px)  }
			}

			@keyframes wave-animation-4 {
			0%   { transform: translate(60px, -30px)  }
			50% { transform: translate(30px, 10px) }
			100% { transform: translate(60px, -30px)}
			}

		</style>
		<clipPath id="clip-path" transform="translate(35 -15.55) scale(0.8)">
			<path class="cls-1" d="M309.31,52.29A154.66,154.66,0,1,1,9.06,0C81.69,0,181.21,7.58,302.75,7.58A154.53,154.53,0,0,1,309.31,52.29Z" />
		</clipPath>
	</defs>
	<title>
		sea-waves
	</title>
	<g class="waves">
		<path class="wave-1" d="M310.05,15.55a2,2,0,0,0-1.94,1.72c-1,8.33-13.6,17.65-29.07,17.65-13.18,0-31.17-10.26-31.17-19.37,0,9.11-15.54,19.37-31,19.37-12.74,0-32.35-10-32.35-19.37,0,9-18.17,19.37-29.83,19.37-15.47,0-31-10.39-31-19.37,0,9.11-15.85,19.37-31.16,19.37C77,34.92,61.33,24.41,61.33,15.55c0,8.86-15.54,19.37-31,19.37S2.21,25.6,1.24,17.27A1.94,1.94,0,0,0-.7,15.55H-.85a2,2,0,0,0-1.94,1.71,8.32,8.32,0,0,1-.15.87,2,2,0,0,0-.05.42V112a2,2,0,0,0,2,2l311.14-2.89a2,2,0,0,0,2-2V17.5A2,2,0,0,0,310.05,15.55Z" transform="translate(4.49 -15.55)" />
		<path class="wave-2" d="M308.55,56.55a2,2,0,0,0-1.94,1.72c-1,8.33-13.6,17.65-29.07,17.65-13.18,0-31.17-10.26-31.17-19.37,0,9.11-15.54,19.37-31,19.37-12.74,0-32.35-10-32.35-19.37,0,9-18.17,19.37-29.83,19.37-15.47,0-31-10.39-31-19.37,0,9.11-15.85,19.37-31.16,19.37-15.47,0-31.17-10.51-31.17-19.37,0,8.86-15.54,19.37-31,19.37S.71,66.6-.26,58.27A1.94,1.94,0,0,0-2.2,56.55h-.15a2,2,0,0,0-1.94,1.71,8.32,8.32,0,0,1-.15.87,2,2,0,0,0,0,.42V153a2,2,0,0,0,2,1.95l311.14-2.89a2,2,0,0,0,2-2V58.5A2,2,0,0,0,308.55,56.55Z" transform="translate(4.49 -15.55)" />
		<path class="wave-3" d="M310.55,101.05a2,2,0,0,0-1.94,1.72c-1,8.33-13.6,17.65-29.07,17.65-13.18,0-31.17-10.26-31.17-19.37,0,9.11-15.54,19.37-31,19.37-12.74,0-32.35-10-32.35-19.37,0,9-18.17,19.37-29.83,19.37-15.47,0-31-10.39-31-19.37,0,9.11-15.85,19.37-31.16,19.37-15.47,0-31.17-10.51-31.17-19.37,0,8.86-15.54,19.37-31,19.37S2.71,111.1,1.74,102.77A1.94,1.94,0,0,0-.2,101.05H-.35a2,2,0,0,0-1.94,1.71,8.32,8.32,0,0,1-.15.87,2,2,0,0,0-.05.42v93.44a2,2,0,0,0,2,1.95l311.14-2.89a2,2,0,0,0,2-2V103A2,2,0,0,0,310.55,101.05Z" transform="translate(4.49 -15.55)" />
		<path class="wave-4" d="M310.05,142.55a2,2,0,0,0-1.94,1.72c-1,8.33-13.6,17.65-29.07,17.65-13.18,0-31.17-10.26-31.17-19.37,0,9.11-15.54,19.37-31,19.37-12.74,0-32.35-10-32.35-19.37,0,9-18.17,19.37-29.83,19.37-15.47,0-31-10.39-31-19.37,0,9.11-15.85,19.37-31.16,19.37-15.47,0-31.17-10.51-31.17-19.37,0,8.86-15.54,19.37-31,19.37S2.21,152.6,1.24,144.27A1.94,1.94,0,0,0-.7,142.55H-.85a2,2,0,0,0-1.94,1.71,8.32,8.32,0,0,1-.15.87,2,2,0,0,0-.05.42V239a2,2,0,0,0,2,1.95l311.14-2.89a2,2,0,0,0,2-2V144.5A2,2,0,0,0,310.05,142.55Z" transform="translate(4.49 -15.55)" />
	</g>
</svg>
